<?xml version="1.0" encoding="utf-8"?>
<!-- Generator: Adobe Illustrator 16.0.3, SVG Export Plug-In . SVG Version: 6.00 Build 0)  -->
<!DOCTYPE svg PUBLIC "-//W3C//DTD SVG 1.1//EN" "http://www.w3.org/Graphics/SVG/1.1/DTD/svg11.dtd">
<svg version="1.1" id="Layer_1" xmlns="http://www.w3.org/2000/svg" xmlns:xlink="http://www.w3.org/1999/xlink" x="0px" y="0px"
	 width="160px" height="27px" viewBox="0 0 160 27" enable-background="new 0 0 160 27" xml:space="preserve">
<path fill="#8b8b8c" d="M43.3,5.6c-1.5-1.2-3.6-1.9-6.6-1.9c-1.8,0-3.4,0.1-4.7,0.4v17.8c0.9,0.1,2.3,0.2,3.9,0.2
	c3.2,0,5.7-0.7,7.3-2.2c1.4-1.2,2.7-3.5,2.7-7.4C46,9.3,45,7,43.3,5.6z M36.8,19.3c-0.5,0-1,0-1.3-0.1V6.6c0.4-0.1,0.9-0.1,1.6-0.1
	c3.2,0,5.2,2,5.2,6.1C42.4,17.3,40.2,19.4,36.8,19.3z M53.8,8.6c-3.8,0-6,3.2-6,7c0,4.1,2.3,6.6,6.4,6.6c1.6,0,3.2-0.3,4.2-0.7
	L57.9,19c-0.9,0.3-1.9,0.5-3.2,0.5c-1.9,0-3.5-0.9-3.6-3.1h7.8c0.1-0.4,0.1-0.9,0.1-1.4C59,10.8,57,8.6,53.8,8.6z M51.1,14
	c0.1-1.3,0.8-3,2.5-3c1.7,0,2.3,1.7,2.2,3H51.1z M66.8,15.2c-0.3,1.2-0.5,2.2-0.7,3.3H66c-0.2-1.1-0.4-2.2-0.7-3.3l-1.7-6.3h-3.7
	L64.2,22h3.4L72,8.9h-3.6L66.8,15.2z M77.5,14h5.9v-2.8h-5.9V6.8h6.3V3.9H74V22h10.1V19h-6.6V14z M97.3,8.9h-3.7l-1.2,2.4
	c-0.3,0.7-0.6,1.4-1,2.1h0c-0.3-0.7-0.6-1.3-1-2.1l-1.2-2.4h-3.9l3.9,6.5l-4,6.6h3.7l1.2-2.5c0.3-0.7,0.7-1.4,1-2.1h0
	c0.3,0.7,0.6,1.4,1,2.1l1.3,2.5h3.9l-4-6.8L97.3,8.9z M106.2,8.6c-1.7,0-3,0.7-3.9,2.1h0l-0.2-1.8h-3c0,1.2,0.1,2.6,0.1,4.3V27h3.5
	v-6.3h0.1c0.6,0.9,1.7,1.5,3.1,1.5c2.7,0,5.4-2.1,5.4-6.9C111.2,11.3,109,8.6,106.2,8.6z M104.9,19.5c-1.2,0-2.3-0.9-2.3-2.8v-2.4
	c0-1.6,1.1-2.8,2.4-2.8c1.7,0,2.6,1.7,2.6,4C107.6,17.7,106.7,19.5,104.9,19.5z M116.7,11.1L116.7,11.1l-0.2-2.3h-3
	c0,1.2,0.1,2.5,0.1,4.1v9h3.5v-6.8c0-2.2,1.2-3.3,2.8-3.3c0.4,0,0.6,0,0.9,0.1V8.6c-0.2,0-0.4-0.1-0.8-0.1
	C118.8,8.6,117.4,9.4,116.7,11.1z M128,8.6c-3.8,0-6,3.2-6,7c0,4.1,2.3,6.6,6.4,6.6c1.6,0,3.2-0.3,4.2-0.7l-0.5-2.4
	c-0.9,0.3-1.9,0.5-3.2,0.5c-1.9,0-3.5-0.9-3.6-3.1h7.9c0.1-0.4,0.1-0.9,0.1-1.4C133.3,10.8,131.2,8.6,128,8.6z M125.3,14
	c0.1-1.3,0.8-3,2.5-3c1.7,0,2.3,1.7,2.2,3H125.3z M140.5,14.1c-1.5-0.6-2-1-2-1.7c0-0.7,0.6-1.2,1.6-1.2c1,0,1.9,0.4,2.5,0.7
	l0.7-2.4c-0.8-0.4-1.9-0.7-3.3-0.7c-2.9,0-4.8,1.8-4.8,4.1c0,1.4,0.9,2.8,3.3,3.8c1.4,0.6,1.9,1,1.9,1.8s-0.6,1.3-1.8,1.3
	c-1.1,0-2.4-0.5-3.1-0.9l-0.7,2.5c0.9,0.5,2.3,0.9,3.7,0.9c3.3,0,5.2-1.6,5.2-4.1C143.8,16.2,142.7,15,140.5,14.1z M150.9,14.1
	c-1.5-0.6-2-1-2-1.7c0-0.7,0.6-1.2,1.6-1.2c1,0,1.9,0.4,2.5,0.7l0.7-2.4c-0.8-0.4-1.9-0.7-3.2-0.7c-2.9,0-4.8,1.8-4.8,4.1
	c0,1.4,0.9,2.8,3.4,3.8c1.4,0.6,1.9,1,1.9,1.8s-0.6,1.3-1.8,1.3c-1.1,0-2.4-0.5-3.1-0.9l-0.7,2.5c0.9,0.5,2.3,0.9,3.7,0.9
	c3.3,0,5.2-1.6,5.2-4.1C154.2,16.2,153.2,15,150.9,14.1z M155.2,7.2h0.8v2.5h0.3V7.2h0.8V6.9h-1.9V7.2z M159.8,6.9h-0.4L159,8.3
	c-0.1,0.4-0.2,0.6-0.3,0.9h0c-0.1-0.3-0.2-0.6-0.3-0.9l-0.5-1.4h-0.4l-0.2,2.7h0.3l0.1-1.2c0-0.4,0.1-0.9,0.1-1.2h0
	c0.1,0.3,0.2,0.7,0.3,1.1l0.5,1.3h0.2l0.5-1.4c0.1-0.4,0.2-0.7,0.3-1h0c0,0.3,0,0.8,0.1,1.2l0.1,1.2h0.3L159.8,6.9z"/>
<path fill="#8b8b8c" d="M22.4,0H1.6C0.7,0,0,0.7,0,1.6v12.4C4.7,9.4,12.5,4.8,23.9,3.5c0,0,0,0,0,0V1.6C23.9,0.7,23.2,0,22.4,0z"/>
<path fill="#8b8b8c" d="M0.8,20.4c-0.3,0.4-0.6,0.7-0.8,1.1v0.8c0,0.9,0.7,1.6,1.6,1.6h20.9c0.9,0,1.6-0.7,1.6-1.6V6.7
	C12,9.1,4.7,15.7,0.8,20.4z"/>
</svg>
