<?xml version="1.0" encoding="utf-8"?>
<!-- Generator: Adobe Illustrator 16.0.3, SVG Export Plug-In . SVG Version: 6.00 Build 0)  -->
<!DOCTYPE svg PUBLIC "-//W3C//DTD SVG 1.1//EN" "http://www.w3.org/Graphics/SVG/1.1/DTD/svg11.dtd">
<svg version="1.1" id="Layer_1" xmlns="http://www.w3.org/2000/svg" xmlns:xlink="http://www.w3.org/1999/xlink" x="0px" y="0px"
	 width="18px" height="18px" viewBox="0 0 18 18" enable-background="new 0 0 18 18" xml:space="preserve">
<path fill="#3379B7" d="M17,2H1C0.5,2,0,2.5,0,3v10c0,0.5,0.5,1,1,1h6v1H5c-0.5,0-1,0.5-1,1s0.5,1,1,1h8c0.5,0,1-0.5,1-1s-0.5-1-1-1
	h-2v-1h6c0.5,0,1-0.5,1-1V3C18,2.5,17.5,2,17,2z M16,11c0,0.5-0.5,1-1,1H3c-0.5,0-1-0.5-1-1V5c0-0.5,0.5-1,1-1h12c0.5,0,1,0.5,1,1
	V11z"/>
</svg>
