<?xml version="1.0" encoding="utf-8"?>
<!-- Generator: Adobe Illustrator 16.0.3, SVG Export Plug-In . SVG Version: 6.00 Build 0)  -->
<!DOCTYPE svg PUBLIC "-//W3C//DTD SVG 1.1//EN" "http://www.w3.org/Graphics/SVG/1.1/DTD/svg11.dtd">
<svg version="1.1" id="Layer_1" xmlns="http://www.w3.org/2000/svg" xmlns:xlink="http://www.w3.org/1999/xlink" x="0px" y="0px"
	 width="18px" height="18px" viewBox="0 0 18 18" enable-background="new 0 0 18 18" xml:space="preserve">
<path fill="#3379B7" d="M17,5H1C0.5,5,0,5.5,0,6v5c0,0.5,0.5,1,1,1h16c0.5,0,1-0.5,1-1V6C18,5.5,17.5,5,17,5z M4.5,11
	C3.1,11,2,9.9,2,8.5S3.1,6,4.5,6S7,7.1,7,8.5S5.9,11,4.5,11z M16,9c0,0.5-0.5,1-1,1H9c-0.5,0-1-0.5-1-1V8c0-0.5,0.5-1,1-1h6
	c0.5,0,1,0.5,1,1V9z"/>
</svg>
