<?xml version="1.0" encoding="utf-8"?>
<!DOCTYPE svg PUBLIC "-//W3C//DTD SVG 1.1//EN" "http://www.w3.org/Graphics/SVG/1.1/DTD/svg11.dtd">
<svg version="1.1" xmlns="http://www.w3.org/2000/svg" xmlns:xlink="http://www.w3.org/1999/xlink" x="0px" y="0px"
	 width="34px" height="34px" viewBox="0 0 34 34" xml:space="preserve">
<g>
        <circle fill="#505050" cx="17" cy="17" r="17" />
        <circle fill="#505050" cx="17" cy="17" r="15" />
        <circle fill="#FFF" cx="13.5" cy="22.5" r="1.5" />
        <circle fill="#FFF" cx="20.5" cy="22.5" r="1.5" />
        <path fill="#FFF" d="M23,13h-9v-2c0-0.5-0.5-1-1-1h-2c-0.5,0-1,0.5-1,1s0.5,1,1,1h1v7c0,0.5,0.5,1,1,1h8c0.5,0,1.1-0.4,1.3-1
	l1.5-5.1C23.9,13.4,23.5,13,23,13z" />
</g>
</svg>